HIERARCHY
ROOT Hips
{
    OFFSET   0.000000   0.000000   0.000000
    CHANNELS 6 Xposition Yposition Zposition Zrotation Xrotation Yrotation
    JOINT Chest
    {
        OFFSET   0.000000   8.007230   0.000000
        CHANNELS 3 Zrotation Xrotation Yrotation
        JOINT Chest2
        {
            OFFSET   0.000000  22.077100   0.000000
            CHANNELS 3 Zrotation Xrotation Yrotation
            JOINT Neck
            {
                OFFSET   0.000000  23.254700   0.000000
                CHANNELS 3 Zrotation Xrotation Yrotation
                JOINT Head
                {
                    OFFSET   0.000010  14.370000   1.956610
                    CHANNELS 3 Zrotation Xrotation Yrotation
                    End Site
                    {
                        OFFSET   0.000000  19.566000   0.000000
                    }
                }
            }
            JOINT LeftCollar
            {
                OFFSET   3.911900  19.017000  -0.467063
                CHANNELS 3 Zrotation Xrotation Yrotation
                JOINT LeftShoulder
                {
                    OFFSET  10.383700   0.000000   0.000000
                    CHANNELS 3 Zrotation Xrotation Yrotation
                    JOINT LeftElbow
                    {
                        OFFSET  26.662100   0.001671   0.000522
                        CHANNELS 3 Zrotation Xrotation Yrotation
                        JOINT LeftWrist
                        {
                            OFFSET  28.869000   0.000037  -0.000114
                            CHANNELS 3 Zrotation Xrotation Yrotation
                            JOINT LeftFinger0
                            {
                                OFFSET   2.044650  -2.323450   3.252850
                                CHANNELS 3 Zrotation Xrotation Yrotation
                                JOINT LeftFinger01
                                {
                                    OFFSET   3.088140   0.000000   0.000000
                                    CHANNELS 3 Zrotation Xrotation Yrotation
                                    JOINT LeftFinger02
                                    {
                                        OFFSET   2.639460   0.000000   0.000000
                                        CHANNELS 3 Zrotation Xrotation Yrotation
                                        End Site
                                        {
                                            OFFSET   2.582190   0.000000   0.000000
                                        }
                                    }
                                }
                            }
                            JOINT LeftFinger1
                            {
                                OFFSET   8.364480   0.000000   3.252850
                                CHANNELS 3 Zrotation Xrotation Yrotation
                                JOINT LeftFinger11
                                {
                                    OFFSET   4.646930   0.000000   0.000000
                                    CHANNELS 3 Zrotation Xrotation Yrotation
                                    JOINT LeftFinger12
                                    {
                                        OFFSET   2.323470   0.000000   0.000000
                                        CHANNELS 3 Zrotation Xrotation Yrotation
                                        End Site
                                        {
                                            OFFSET   2.273050   0.000000   0.000000
                                        }
                                    }
                                }
                            }
                            JOINT LeftFinger2
                            {
                                OFFSET   8.364490   0.000016   1.078090
                                CHANNELS 3 Zrotation Xrotation Yrotation
                                JOINT LeftFinger21
                                {
                                    OFFSET   5.111620   0.000000   0.000000
                                    CHANNELS 3 Zrotation Xrotation Yrotation
                                    JOINT LeftFinger22
                                    {
                                        OFFSET   2.788150   0.000013   0.000000
                                        CHANNELS 3 Zrotation Xrotation Yrotation
                                        End Site
                                        {
                                            OFFSET   2.727660   0.000000   0.000000
                                        }
                                    }
                                }
                            }
                            JOINT LeftFinger3
                            {
                                OFFSET   7.899780   0.000016  -1.078090
                                CHANNELS 3 Zrotation Xrotation Yrotation
                                JOINT LeftFinger31
                                {
                                    OFFSET   4.646930   0.000000   0.000000
                                    CHANNELS 3 Zrotation Xrotation Yrotation
                                    JOINT LeftFinger32
                                    {
                                        OFFSET   2.323470   0.000000   0.000000
                                        CHANNELS 3 Zrotation Xrotation Yrotation
                                        End Site
                                        {
                                            OFFSET   2.273050   0.000000   0.000000
                                        }
                                    }
                                }
                            }
                            JOINT LeftFinger4
                            {
                                OFFSET   7.435080   0.000000  -3.252850
                                CHANNELS 3 Zrotation Xrotation Yrotation
                                JOINT LeftFinger41
                                {
                                    OFFSET   3.717550   0.000000   0.000000
                                    CHANNELS 3 Zrotation Xrotation Yrotation
                                    JOINT LeftFinger42
                                    {
                                        OFFSET   1.858760   0.000000   0.000000
                                        CHANNELS 3 Zrotation Xrotation Yrotation
                                        End Site
                                        {
                                            OFFSET   1.818440   0.000000   0.000000
                                        }
                                    }
                                }
                            }
                        }
                    }
                }
            }
            JOINT RightCollar
            {
                OFFSET  -3.911900  19.017000  -0.467064
                CHANNELS 3 Zrotation Xrotation Yrotation
                JOINT RightShoulder
                {
                    OFFSET -10.383700   0.000000   0.000000
                    CHANNELS 3 Zrotation Xrotation Yrotation
                    JOINT RightElbow
                    {
                        OFFSET -26.662100   0.001633   0.000260
                        CHANNELS 3 Zrotation Xrotation Yrotation
                        JOINT RightWrist
                        {
                            OFFSET -28.869000  -0.000045  -0.000080
                            CHANNELS 3 Zrotation Xrotation Yrotation
                            JOINT RightFinger0
                            {
                                OFFSET  -2.044660  -2.323490   3.252850
                                CHANNELS 3 Zrotation Xrotation Yrotation
                                JOINT RightFinger01
                                {
                                    OFFSET  -3.088140   0.000000   0.000000
                                    CHANNELS 3 Zrotation Xrotation Yrotation
                                    JOINT RightFinger02
                                    {
                                        OFFSET  -2.639450   0.000000   0.000000
                                        CHANNELS 3 Zrotation Xrotation Yrotation
                                        End Site
                                        {
                                            OFFSET  -2.582190   0.000000   0.000000
                                        }
                                    }
                                }
                            }
                            JOINT RightFinger1
                            {
                                OFFSET  -8.364480   0.000000   3.252850
                                CHANNELS 3 Zrotation Xrotation Yrotation
                                JOINT RightFinger11
                                {
                                    OFFSET  -4.646920   0.000000   0.000000
                                    CHANNELS 3 Zrotation Xrotation Yrotation
                                    JOINT RightFinger12
                                    {
                                        OFFSET  -2.323470   0.000000   0.000000
                                        CHANNELS 3 Zrotation Xrotation Yrotation
                                        End Site
                                        {
                                            OFFSET  -2.273050   0.000000   0.000000
                                        }
                                    }
                                }
                            }
                            JOINT RightFinger2
                            {
                                OFFSET  -8.364480   0.000000   1.078090
                                CHANNELS 3 Zrotation Xrotation Yrotation
                                JOINT RightFinger21
                                {
                                    OFFSET  -5.111610   0.000000   0.000000
                                    CHANNELS 3 Zrotation Xrotation Yrotation
                                    JOINT RightFinger22
                                    {
                                        OFFSET  -2.788160   0.000000   0.000000
                                        CHANNELS 3 Zrotation Xrotation Yrotation
                                        End Site
                                        {
                                            OFFSET  -2.727660   0.000000   0.000000
                                        }
                                    }
                                }
                            }
                            JOINT RightFinger3
                            {
                                OFFSET  -7.899780   0.000000  -1.078090
                                CHANNELS 3 Zrotation Xrotation Yrotation
                                JOINT RightFinger31
                                {
                                    OFFSET  -4.646930   0.000000   0.000000
                                    CHANNELS 3 Zrotation Xrotation Yrotation
                                    JOINT RightFinger32
                                    {
                                        OFFSET  -2.323470   0.000000   0.000000
                                        CHANNELS 3 Zrotation Xrotation Yrotation
                                        End Site
                                        {
                                            OFFSET  -2.273050   0.000000   0.000000
                                        }
                                    }
                                }
                            }
                            JOINT RightFinger4
                            {
                                OFFSET  -7.435090   0.000000  -3.252850
                                CHANNELS 3 Zrotation Xrotation Yrotation
                                JOINT RightFinger41
                                {
                                    OFFSET  -3.717550   0.000000   0.000000
                                    CHANNELS 3 Zrotation Xrotation Yrotation
                                    JOINT RightFinger42
                                    {
                                        OFFSET  -1.858760   0.000000   0.000000
                                        CHANNELS 3 Zrotation Xrotation Yrotation
                                        End Site
                                        {
                                            OFFSET  -1.818440   0.000000   0.000000
                                        }
                                    }
                                }
                            }
                        }
                    }
                }
            }
        }
    }
    JOINT LeftHip
    {
        OFFSET   9.782990   0.000000   0.000000
        CHANNELS 3 Zrotation Xrotation Yrotation
        JOINT LeftKnee
        {
            OFFSET  -0.000063 -41.789100   0.001657
            CHANNELS 3 Zrotation Xrotation Yrotation
            JOINT LeftAnkle
            {
                OFFSET   0.000078 -41.133200  -0.000113
                CHANNELS 3 Zrotation Xrotation Yrotation
                JOINT LeftToe
                {
                    OFFSET   0.000000  -6.358970  14.674500
                    CHANNELS 3 Zrotation Xrotation Yrotation
                    End Site
                    {
                        OFFSET   0.000000   0.000000   3.913200
                    }
                }
            }
        }
    }
    JOINT RightHip
    {
        OFFSET  -9.782990   0.000000   0.000000
        CHANNELS 3 Zrotation Xrotation Yrotation
        JOINT RightKnee
        {
            OFFSET   0.000053 -41.789200   0.000277
            CHANNELS 3 Zrotation Xrotation Yrotation
            JOINT RightAnkle
            {
                OFFSET   0.000030 -41.133200  -0.000150
                CHANNELS 3 Zrotation Xrotation Yrotation
                JOINT RightToe
                {
                    OFFSET   0.000000  -6.358960  14.674500
                    CHANNELS 3 Zrotation Xrotation Yrotation
                    End Site
                    {
                        OFFSET   0.000000   0.000000   3.913200
                    }
                }
            }
        }
    }
}
MOTION
Frames: 6
Frame Time:   0.016667
  1.153460  89.613300  -0.648908  -2.813850  -8.757730  -1.515730   0.657743   5.333590   0.522563   1.274710  10.672700   0.989775   0.047706  -0.844214   0.005160   0.081891  -1.712050   2.859450  -7.196390  -1.327320   1.497150 -71.134700  16.684000  -1.479520  -1.101630  -5.470540 -17.805700  13.011600  -6.135000   4.519500  39.230400  37.401000 -69.293600 -34.782800  -0.001553   0.000086 -12.400900   0.000467  -0.003510 -32.225800   4.844390  -7.630490 -26.636500  -0.006502   0.002229 -18.645600  -0.008357  -0.003647 -30.452500  -1.270130   2.171710 -45.709100  -0.007473  -0.009699 -30.454200  -0.004736  -0.008440 -30.070600  -1.255590   2.180240 -45.130300  -0.005832  -0.005761 -30.066000  -0.001806  -0.004715 -35.452200  -1.453590   2.052020 -53.230300  -0.004477  -0.001356 -35.448400   0.003771  -0.002174  11.499300   0.402277   9.870360  67.620100   5.975650  -6.875300  -1.857100  -9.717210  14.032000 -13.263300  -4.519740   2.945440 -35.266100  20.642600  56.099300  28.847900  -0.005379  -0.009110   9.434760  -0.002792  -0.002259  38.442100   9.610030  11.876800  32.272400  -0.000263   0.001926  22.590700   0.005391   0.001988  27.607800   5.571530  10.505700  32.823200  -0.005190   0.003778  21.860300  -0.000284   0.004972  32.454700   2.580450   4.049470  48.818900   0.001543   0.002407  32.513400  -0.002877   0.014129  45.297500  -2.775300  -2.743450  68.045900   0.007225   0.002187  45.318600   0.013541   0.003250   2.172110  10.963200   5.100070   1.177040   0.069841   7.115200  -0.804131  -3.507190   1.812610   0.000000   0.000000  -0.000000   3.108430   9.559970   2.326060  -0.532717   2.613980  -6.695770  -0.740745  -4.621510  -1.782380   0.000000   0.000000   0.000000
  1.146370  89.613300  -0.660822  -2.810630  -8.771030  -1.492390   0.657723   5.346320   0.522456   1.274610  10.698100   0.989438   0.047486  -0.839025   0.005156   0.081444  -1.701430   2.868410  -7.190500  -1.336730   1.491940 -71.119700  16.710300  -1.498720  -1.107760  -5.485270 -17.815700  13.012500  -6.146040   4.519580  39.230300  37.407700 -69.297100 -34.788700  -0.001555   0.000086 -12.400700   0.000466  -0.003517 -32.232100   4.843910  -7.629120 -26.636400  -0.006507   0.002229 -18.645500  -0.008356  -0.003648 -30.452300  -1.274280   2.173310 -45.708500  -0.007471  -0.009697 -30.454200  -0.004737  -0.008437 -30.070400  -1.259750   2.181810 -45.134900  -0.005830  -0.005762 -30.066300  -0.001806  -0.004716 -35.455300  -1.458430   2.053490 -53.230300  -0.004475  -0.001352 -35.449200   0.003771  -0.002171  11.500900   0.392654   9.870260  67.629000   5.989270  -6.886860  -1.833530  -9.723490  14.024900 -13.254400  -4.498330   2.937800 -35.259900  20.622700  56.063900  28.857000  -0.005377  -0.009107   9.434760  -0.002791  -0.002250  38.425900   9.590510  11.862400  32.256200  -0.000267   0.001924  22.579300   0.005389   0.001984  27.601400   5.571410  10.512300  32.778800  -0.005187   0.003775  21.830700  -0.000287   0.004965  32.437100   2.571890   4.039520  48.791700   0.001543   0.002406  32.495300  -0.002885   0.014129  45.277900  -2.768470  -2.738390  68.016100   0.007223   0.002185  45.298800   0.013542   0.003254   2.177180  10.963100   5.096710   1.176780   0.070753   7.108310  -0.809701  -3.497250   1.799110   0.000000   0.000000   0.000000   3.111170   9.567620   2.326350  -0.532260   2.617320  -6.700480  -0.746919  -4.622270  -1.801960   0.000000   0.000000   0.000000
  1.134200  89.613200  -0.680836  -2.805770  -8.792430  -1.457000   0.657698   5.367510   0.522204   1.274450  10.740500   0.988729   0.047266  -0.830379   0.005149   0.080818  -1.683760   2.883440  -7.180710  -1.351600   1.483320 -71.095900  16.748200  -1.528320  -1.116900  -5.499760 -17.833900  13.013400  -6.157530   4.519670  39.229200  37.416600 -69.298900 -34.797900  -0.001557   0.000085 -12.400500   0.000465  -0.003523 -32.239400   4.840510  -7.620500 -26.636100  -0.006513   0.002228 -18.645300  -0.008354  -0.003652 -30.451700  -1.284340   2.183360 -45.707900  -0.007467  -0.009692 -30.454300  -0.004740  -0.008428 -30.069800  -1.269760   2.191870 -45.141200  -0.005825  -0.005764 -30.066700  -0.001805  -0.004719 -35.460400  -1.470100   2.062900 -53.230300  -0.004469  -0.001338 -35.451400   0.003770  -0.002162  11.503600   0.376118   9.870070  67.646600   6.005220  -6.902930  -1.794680  -9.737420  14.008300 -13.246600  -4.463390   2.924410 -35.253700  20.602700  56.028500  28.869500  -0.005376  -0.009104   9.434760  -0.002791  -0.002241  38.399100   9.570990  11.848100  32.231900  -0.000271   0.001912  22.562300   0.005381   0.001972  27.589300   5.571190  10.524800  32.694800  -0.005174   0.003760  21.774700  -0.000296   0.004950  32.410400   2.563340   4.029580  48.750900   0.001540   0.002402  32.468100  -0.002906   0.014125  45.247400  -2.757830  -2.730970  67.969700   0.007216   0.002179  45.267800   0.013544   0.003263   2.186380  10.962300   5.089630   1.175850   0.077132   7.098210  -0.819152  -3.483060   1.779130  -0.000000   0.000000   0.000000   3.117130   9.575270   2.326640  -0.531209   2.624790  -6.707530  -0.757498  -4.623000  -1.832290   0.000000   0.000000  -0.000000
  1.123720  89.613200  -0.697448  -2.802310  -8.807450  -1.436200   0.657698   5.384440   0.521849   1.274380  10.774300   0.987855   0.047317  -0.823506   0.005140   0.080588  -1.669780   2.896490  -7.173190  -1.361720   1.476020 -71.079200  16.764300  -1.546510  -1.124850  -5.496730 -17.855200  13.011600  -6.157960   4.524420  39.229400  37.418800 -69.290900 -34.803400  -0.001555   0.000088 -12.401700   0.000471  -0.003521 -32.239600   4.826230  -7.597080 -26.635700  -0.006510   0.002223 -18.645100  -0.008356  -0.003658 -30.451400  -1.301010   2.210770 -45.713700  -0.007462  -0.009687 -30.454400  -0.004745  -0.008413 -30.070300  -1.286230   2.219400 -45.143200  -0.005818  -0.005771 -30.066900  -0.001807  -0.004722 -35.465300  -1.489270   2.088720 -53.236500  -0.004461  -0.001312 -35.456500   0.003770  -0.002149  11.506200   0.360628   9.869830  67.666800   6.007940  -6.908740  -1.762990  -9.761450  13.983300 -13.257300  -4.436060   2.909070 -35.252600  20.602600  56.029900  28.873100  -0.005378  -0.009102   9.436920  -0.002792  -0.002250  38.378600   9.570970  11.852800  32.215500  -0.000271   0.001889  22.550800   0.005369   0.001953  27.574500   5.574450  10.539200  32.598300  -0.005146   0.003726  21.710400  -0.000309   0.004933  32.392000   2.567660   4.038360  48.723800   0.001531   0.002394  32.450000  -0.002939   0.014115  45.223100  -2.749390  -2.726640  67.932900   0.007204   0.002171  45.243300   0.013545   0.003275   2.196730  10.951100   5.080360   1.175300   0.102244   7.092550  -0.827934  -3.479710   1.768890   0.000000   0.000000  -0.000000   3.125130   9.573610   2.326610  -0.528754   2.636090  -6.712170  -0.766698  -4.622740  -1.852110  -0.000000   0.000000   0.000000
  1.112830  89.613200  -0.713710  -2.798950  -8.822520  -1.419370   0.657699   5.401420   0.521403   1.274310  10.808300   0.986797   0.047682  -0.816554   0.005132   0.080857  -1.655680   2.907980  -7.165210  -1.370990   1.469840 -71.064300  16.777800  -1.562690  -1.134070  -5.493870 -17.871000  13.007500  -6.158000   4.535280  39.228700  37.417900 -69.279100 -34.808900  -0.001554   0.000094 -12.404400   0.000477  -0.003517 -32.238800   4.809350  -7.572320 -26.635500  -0.006508   0.002215 -18.644900  -0.008357  -0.003666 -30.451800  -1.317430   2.239330 -45.719400  -0.007454  -0.009679 -30.454600  -0.004753  -0.008393 -30.070700  -1.302400   2.248110 -45.143500  -0.005810  -0.005779 -30.067000  -0.001809  -0.004727 -35.467800  -1.508140   2.115640 -53.243500  -0.004449  -0.001279 -35.460100   0.003770  -0.002131  11.508400   0.346971   9.869670  67.690400   6.008310  -6.911650  -1.734850  -9.778340  13.955700 -13.273900  -4.411520   2.899450 -35.247100  20.599100  56.038400  28.875300  -0.005380  -0.009101   9.440390  -0.002794  -0.002262  38.367700   9.571650  11.861800  32.207200  -0.000271   0.001858  22.545100   0.005355   0.001928  27.560000   5.579380  10.553000  32.506200  -0.005110   0.003681  21.649100  -0.000327   0.004910  32.382300   2.575000   4.052170  48.710200   0.001517   0.002384  32.441000  -0.002982   0.014102  45.209900  -2.744770  -2.724660  67.912800   0.007189   0.002160  45.229900   0.013547   0.003290   2.206690  10.940600   5.070020   1.175440   0.121889   7.089550  -0.835234  -3.473170   1.760880   0.000000   0.000000   0.000000   3.133720   9.571950   2.326420  -0.525787   2.647090  -6.714480  -0.775989  -4.621800  -1.868340   0.000000   0.000000   0.000000
  1.101510  89.613100  -0.728578  -2.796120  -8.839560  -1.405150   0.657688   5.418390   0.521093   1.274220  10.842200   0.986019   0.052274  -0.809161   0.005131   0.087204  -1.640750   2.914600  -7.155560  -1.380490   1.466240 -71.050300  16.800500  -1.578800  -1.145750  -5.503230 -17.874300  13.001800  -6.157950   4.551230  39.223900  37.413800 -69.266200 -34.815700  -0.001556   0.000098 -12.407800   0.000477  -0.003514 -32.238800   4.800130  -7.557730 -26.635500  -0.006511   0.002205 -18.644900  -0.008353  -0.003674 -30.452700  -1.325640   2.253210 -45.719000  -0.007445  -0.009668 -30.454700  -0.004763  -0.008369 -30.066500  -1.310340   2.262130 -45.138200  -0.005799  -0.005787 -30.062800  -0.001811  -0.004734 -35.466300  -1.517470   2.128780 -53.244000  -0.004436  -0.001243 -35.459100   0.003769  -0.002110  11.509800   0.339916   9.869680  67.717400   6.004050  -6.913180  -1.713190  -9.777270  13.931200 -13.293400  -4.394190   2.899500 -35.228300  20.582400  56.066600  28.881900  -0.005380  -0.009106   9.443490  -0.002787  -0.002266  38.383300   9.583950  11.872100  32.221500  -0.000284   0.001824  22.555100   0.005342   0.001897  27.551200   5.581760  10.561400  32.450100  -0.005074   0.003630  21.611800  -0.000350   0.004879  32.388300   2.581750   4.061630  48.719900   0.001503   0.002371  32.447400  -0.003039   0.014089  45.224400  -2.749840  -2.727690  67.934900   0.007171   0.002149  45.244600   0.013551   0.003309   2.210260  10.972000   5.060580   1.175370   0.062475   7.089110  -0.838458  -3.425810   1.752640   0.000000   0.000000   0.000000   3.141490   9.575920   2.322290  -0.523915   2.653160  -6.713980  -0.784819  -4.620220  -1.880950   0.000000   0.000000   0.000000
